<svg height="512pt" viewBox="0 0 512 512" width="512pt" xmlns="http://www.w3.org/2000/svg"><path d="M504 248h-32.887c-18.781 0-37.41-3.383-54.992-9.992h-.004c-11.105-4.172-13.965-18.555-5.3-26.66l21.331-19.957c5.559-5.203 1.704-14.512-5.906-14.258l-29.195.972c-11.86.395-20.008-11.8-15.106-22.605a156.394 156.394 0 0 1 31.825-45.95l23.254-23.257c3.125-3.125 3.125-8.188 0-11.313s-8.188-3.125-11.313 0l-23.254 23.254A156.36 156.36 0 0 1 356.5 130.06c-10.805 4.902-22.996-3.246-22.602-15.106l.973-29.195c.25-7.61-9.059-11.465-14.258-5.906l-19.96 21.332c-8.102 8.664-22.489 5.8-26.66-5.301v-.004A156.282 156.282 0 0 1 264 40.887V8a8 8 0 0 0-16 0v32.887c0 18.781-3.383 37.41-9.992 54.992v.004c-4.172 11.101-18.555 13.965-26.66 5.3l-19.961-21.331c-5.2-5.559-14.508-1.704-14.254 5.906l.969 29.195c.394 11.86-11.797 20.008-22.602 15.106a156.36 156.36 0 0 1-45.953-31.825L86.293 74.98c-3.121-3.125-8.188-3.125-11.313 0s-3.125 8.188 0 11.313l23.254 23.258A156.343 156.343 0 0 1 130.06 155.5c4.902 10.805-3.247 22.996-15.102 22.605l-29.2-.972c-7.605-.254-11.46 9.054-5.905 14.258l21.335 19.957c8.665 8.105 5.801 22.488-5.304 26.66v.004A156.403 156.403 0 0 1 40.887 248H8a8 8 0 0 0 0 16h32.887c18.781 0 37.41 3.383 54.992 9.992h.004c11.105 4.172 13.965 18.559 5.3 26.66L79.853 320.61c-5.559 5.204-1.7 14.512 5.906 14.258l29.195-.972c11.86-.395 20.008 11.8 15.106 22.601a156.36 156.36 0 0 1-31.825 45.953L74.98 425.707c-3.125 3.121-3.125 8.188 0 11.313s8.192 3.125 11.313 0l23.254-23.254A156.36 156.36 0 0 1 155.5 381.94c10.805-4.902 22.996 3.247 22.605 15.106l-.972 29.195c-.254 7.61 9.054 11.465 14.258 5.906l19.957-21.332c8.105-8.664 22.488-5.804 26.664 5.301A156.403 156.403 0 0 1 248 471.113V504a8 8 0 0 0 16 0v-32.887c0-18.785 3.387-37.414 9.992-54.996 4.172-11.105 18.559-13.965 26.66-5.3l19.961 21.331c5.2 5.559 14.508 1.7 14.254-5.906l-.969-29.195c-.394-11.86 11.797-20.008 22.602-15.106a156.36 156.36 0 0 1 45.953 31.825l23.254 23.254c3.125 3.125 8.188 3.125 11.313 0s3.125-8.192 0-11.313l-23.254-23.254a156.275 156.275 0 0 1-31.82-45.953c-4.903-10.805 3.245-22.996 15.1-22.605l29.196.972c7.61.254 11.465-9.054 5.906-14.258l-21.332-19.957c-8.664-8.105-5.8-22.488 5.301-26.66h.004A156.37 156.37 0 0 1 471.113 264H504a8 8 0 0 0 0-16zm0 0" fill="#ffe07d"/><path d="M384 256c0 70.691-57.309 128-128 128s-128-57.309-128-128 57.309-128 128-128 128 57.309 128 128zm0 0" fill="#fff5d7"/><path d="M360 256c0 20.527-5.945 39.668-16.215 55.785C325.328 340.773 292.91 349.5 256 349.5c-57.438 0-90.332-36.063-90.332-93.5 0-36.91 5.562-69.328 34.547-87.79C216.335 157.946 235.473 152 256 152c57.438 0 104 46.563 104 104zm0 0" fill="#ffc269"/><path d="M288 328c-57.438 0-104-46.563-104-104 0-20.52 5.957-39.668 16.215-55.785C171.223 186.672 152 219.082 152 256c0 57.438 46.563 104 104 104 36.918 0 69.332-19.219 87.79-48.21C327.671 322.046 308.52 328 288 328zm0 0" fill="#ffa95f"/></svg>