<svg xmlns="http://www.w3.org/2000/svg" height="512" viewBox="0 0 511.979 511.979" width="512" class="hovered-paths"><path d="M319.239 405.217c0 52.02-40.02 94.69-90.95 98.91a98 98 0 0 1-9.73.34c-53.08-.74-96.56-43.77-97.82-96.84-.89-37.59 19.12-70.59 49.24-88.18V57.497c0-13.8 5.6-26.3 14.64-35.35a49.929 49.929 0 0 1 20.12-12.28c4.8-1.54 9.92-2.37 15.24-2.37 27.61 0 50 22.39 50 50v261.95c29.46 17.22 49.26 49.18 49.26 85.77z" fill="#e9f5ff" data-original="#E9F5FF"/><path d="M319.239 405.217c0 52.02-40.02 94.69-90.95 98.91-.2-2.55-.17-4.96.09-7.2 35.75-15.01 60.86-50.36 60.86-91.56 0-36.59-19.8-60.56-49.26-77.77V57.647c0-22.48-14.83-41.48-35.24-47.78 4.8-1.54 9.92-2.37 15.24-2.37 27.61 0 50 22.39 50 50v261.95c29.46 17.22 49.26 49.18 49.26 85.77z" fill="#bde2ef" data-original="#BDE2EF"/><path d="M254.839 345.497a30.008 30.008 0 0 1-14.86-25.9V57.647c0-11.03-8.98-20-20-20-2.33 0-4.56.4-6.64 1.13-7.78 2.75-13.36 10.17-13.36 18.87v261.95c0 10.66-5.66 20.52-14.87 25.9-21.8 12.74-34.98 36.33-34.38 61.57.43 17.86 7.74 34.71 20.6 47.43 12.85 12.73 29.77 19.88 47.65 20.12 13.56.17 26.56-3.49 37.76-10.53 4.24-2.66 8.22-5.8 11.87-9.4 13.3-13.12 20.63-30.64 20.63-49.32 0-24.53-13.18-47.47-34.4-59.87z" fill="#f6c377" data-original="#FF6E6E" data-old_color="#ff6e6e"/><path d="M254.839 345.497a30.008 30.008 0 0 1-14.86-25.9V57.647c0-11.03-8.98-20-20-20-2.33 0-4.56.4-6.64 1.13 4.07 3.66 6.64 8.97 6.64 14.87v284.95c0 10.66 5.66 20.52 14.86 25.9 21.22 12.4 34.4 35.34 34.4 59.87 0 14.43-4.37 28.17-12.5 39.72 4.24-2.66 8.22-5.8 11.87-9.4 13.3-13.12 20.63-30.64 20.63-49.32 0-24.53-13.18-47.47-34.4-59.87z" fill="#fae08b" data-original="#F44E92" class="hovered-path active-path" data-old_color="#f44e92"/><path d="M239.979 57.647v77.54h-40v-77.54c0-8.7 5.58-16.12 13.36-18.87 2.08-.73 4.31-1.13 6.64-1.13 11.02 0 20 8.97 20 20z" fill="#4f667a" data-original="#4F667A"/><path d="M219.979 37.647c-2.33 0-4.56.4-6.64 1.13 4.07 3.66 6.64 8.97 6.64 14.87v81.54h20v-77.54c0-11.03-8.98-20-20-20z" fill="#3a5366" data-original="#3A5366"/><g><path d="M315.493 61.06h75.774c4.143 0 7.5-3.358 7.5-7.5s-3.357-7.5-7.5-7.5h-75.774c-4.143 0-7.5 3.358-7.5 7.5s3.357 7.5 7.5 7.5z" data-original="#000000"/><path d="M315.493 95.689h37.887c4.143 0 7.5-3.358 7.5-7.5s-3.357-7.5-7.5-7.5h-37.887c-4.143 0-7.5 3.358-7.5 7.5s3.357 7.5 7.5 7.5z" data-original="#000000"/><path d="M391.267 115.689h-75.774c-4.143 0-7.5 3.358-7.5 7.5s3.357 7.5 7.5 7.5h75.774c4.143 0 7.5-3.358 7.5-7.5s-3.357-7.5-7.5-7.5z" data-original="#000000"/><path d="M315.493 165.317h37.887c4.143 0 7.5-3.358 7.5-7.5s-3.357-7.5-7.5-7.5h-37.887c-4.143 0-7.5 3.358-7.5 7.5s3.357 7.5 7.5 7.5z" data-original="#000000"/><path d="M391.267 184.803h-75.774c-4.143 0-7.5 3.358-7.5 7.5s3.357 7.5 7.5 7.5h75.774c4.143 0 7.5-3.358 7.5-7.5s-3.357-7.5-7.5-7.5z" data-original="#000000"/><path d="M315.493 234.432h37.887c4.143 0 7.5-3.358 7.5-7.5s-3.357-7.5-7.5-7.5h-37.887c-4.143 0-7.5 3.358-7.5 7.5s3.357 7.5 7.5 7.5z" data-original="#000000"/><path d="M391.267 254.568h-75.774c-4.143 0-7.5 3.358-7.5 7.5s3.357 7.5 7.5 7.5h75.774c4.143 0 7.5-3.358 7.5-7.5s-3.357-7.5-7.5-7.5z" data-original="#000000"/><path d="M353.38 289.197h-37.887c-4.143 0-7.5 3.358-7.5 7.5s3.357 7.5 7.5 7.5h37.887a7.5 7.5 0 0 0 0-15z" data-original="#000000"/><path d="M277.475 314.249v-193.23c0-4.142-3.357-7.5-7.5-7.5s-7.5 3.358-7.5 7.5v197.429a7.5 7.5 0 0 0 3.717 6.476c28.094 16.413 45.546 47.179 45.546 80.293 0 24.752-9.707 47.957-27.333 65.339-17.621 17.378-40.97 26.774-65.739 26.414-23.723-.33-46.158-9.786-63.17-26.626-17.014-16.841-26.693-39.176-27.256-62.891-.808-34.03 16.634-65.654 45.519-82.529a7.501 7.501 0 0 0 3.717-6.476V57.5c0-23.435 19.065-42.5 42.5-42.5s42.5 19.065 42.5 42.5v28.686c0 4.142 3.357 7.5 7.5 7.5s7.5-3.358 7.5-7.5V57.5c0-31.706-25.794-57.5-57.5-57.5s-57.5 25.794-57.5 57.5v256.747c-31.371 20.106-50.134 55.553-49.232 93.563.656 27.615 11.914 53.609 31.7 73.195 19.784 19.583 45.892 30.58 73.514 30.965.512.007 1.022.01 1.533.01 28.246 0 54.81-10.883 74.948-30.743 20.506-20.223 31.8-47.221 31.8-76.02-.001-36.947-18.768-71.401-49.264-90.968z" data-original="#000000"/><path d="M188.892 351.976c11.463-6.697 18.583-19.104 18.583-32.379v-24.369a7.5 7.5 0 0 0-15 0v24.369c0 7.965-4.272 15.41-11.15 19.428-24.159 14.114-38.754 40.255-38.091 68.222.47 19.814 8.572 38.489 22.813 52.586s33.001 22.013 52.834 22.289c.342.004.681.006 1.022.006 20.359 0 39.491-7.827 53.969-22.103 14.745-14.542 22.865-33.953 22.865-54.659 0-27.187-14.604-52.607-38.114-66.342-6.877-4.018-11.15-11.462-11.15-19.427V57.648c0-15.164-12.336-27.5-27.5-27.5s-27.5 12.336-27.5 27.5v202.42a7.5 7.5 0 0 0 15 0V142.689h25v176.907c0 13.276 7.121 25.683 18.584 32.379 18.924 11.055 30.68 31.513 30.68 53.39 0 16.66-6.534 32.278-18.397 43.979-11.844 11.679-27.554 18.023-44.258 17.778-15.926-.222-31.013-6.597-42.482-17.95s-17.993-26.368-18.37-42.282a61.916 61.916 0 0 1 30.662-54.914zm18.583-224.287V57.648c0-6.893 5.607-12.5 12.5-12.5 6.892 0 12.5 5.607 12.5 12.5v70.041z" data-original="#000000"/></g></svg>