<?xml version="1.0"?>
<svg xmlns="http://www.w3.org/2000/svg" xmlns:xlink="http://www.w3.org/1999/xlink" version="1.1" id="Capa_1" x="0px" y="0px" viewBox="0 0 512 512" style="enable-background:new 0 0 512 512;" xml:space="preserve" width="512px" height="512px" class=""><g><g>
	<g>
		<path d="M134.966,60.986C116.281,71.029,98.853,83.405,83.164,97.77l20.26,22.125c13.856-12.688,29.247-23.617,45.745-32.484    L134.966,60.986z" data-original="#000000" class="active-path" data-old_color="#000000" fill="#FFFFFF"/>
	</g>
</g><g>
	<g>
		<path d="M236.151,31.379c-21.239,1.63-42.193,5.904-62.279,12.704l9.619,28.416c17.719-5.998,36.208-9.769,54.955-11.208    L236.151,31.379z" data-original="#000000" class="active-path" data-old_color="#000000" fill="#FFFFFF"/>
	</g>
</g><g>
	<g>
		<path d="M7.826,223.57C2.633,244.072,0,265.285,0,286.621h30c0-18.854,2.324-37.588,6.908-55.685L7.826,223.57z" data-original="#000000" class="active-path" data-old_color="#000000" fill="#FFFFFF"/>
	</g>
</g><g>
	<g>
		<path d="M379.445,62.299L364.959,88.57c16.409,9.048,31.687,20.146,45.408,32.984l20.496-21.906    C415.328,85.112,398.028,72.546,379.445,62.299z" data-original="#000000" class="active-path" data-old_color="#000000" fill="#FFFFFF"/>
	</g>
</g><g>
	<g>
		<path d="M54.346,128.898c-13.126,16.76-24.124,35.103-32.687,54.519l27.449,12.105c7.558-17.136,17.266-33.328,28.856-48.126    L54.346,128.898z" data-original="#000000" class="active-path" data-old_color="#000000" fill="#FFFFFF"/>
	</g>
</g><g>
	<g>
		<path d="M459.346,131.079l-23.816,18.243c11.425,14.914,20.954,31.201,28.324,48.408l27.576-11.812    C483.079,166.422,472.284,147.971,459.346,131.079z" data-original="#000000" class="active-path" data-old_color="#000000" fill="#FFFFFF"/>
	</g>
</g><g>
	<g>
		<path d="M504.824,226.198l-29.158,7.057c4.203,17.366,6.334,35.321,6.334,53.366h30C512,266.201,509.586,245.871,504.824,226.198z    " data-original="#000000" class="active-path" data-old_color="#000000" fill="#FFFFFF"/>
	</g>
</g><g>
	<g>
		<path d="M278.543,31.601l-2.609,29.887c18.726,1.635,37.174,5.601,54.831,11.789l9.922-28.312    C320.668,37.95,299.76,33.453,278.543,31.601z" data-original="#000000" class="active-path" data-old_color="#000000" fill="#FFFFFF"/>
	</g>
</g><g>
	<g>
		<path d="M216,72.621v120h80v-120H216z M266,162.621h-20v-60h20V162.621z" data-original="#000000" class="active-path" data-old_color="#000000" fill="#FFFFFF"/>
	</g>
</g><g>
	<g>
		<polygon points="171.381,268.781 163.461,297.341 178.94,297.341   " data-original="#000000" class="active-path" data-old_color="#000000" fill="#FFFFFF"/>
	</g>
</g><g>
	<g>
		<path d="M401.912,158.767c-20.828-23.753-46.943-41.885-75.912-53.104v116.958H186V105.668    c-29.799,11.552-56.582,30.422-77.626,55.08C78.47,195.79,62,240.492,62,286.621c0,106.972,87.028,194,194,194s194-87.028,194-194    C450,239.537,432.922,194.131,401.912,158.767z M187.82,329.621l-5.16-16.68h-22.68l-5.04,16.68H130.1l31.8-85.2h18.96    l31.681,85.2H187.82z M242.18,329.621H217.1l61.8-85.2h25.2L242.18,329.621z M376.039,318.941c-2.441,2.481-5.22,4.56-8.34,6.24    s-6.441,2.96-9.96,3.84c-3.521,0.879-6.96,1.32-10.32,1.32c-5.921,0-11.36-1.26-16.32-3.78c-4.961-2.52-9.221-5.859-12.779-10.02    c-3.562-4.159-6.342-8.88-8.341-14.16c-2-5.28-3-10.639-3-16.08c0-5.2,0.919-10.32,2.761-15.36c1.839-5.04,4.539-9.559,8.1-13.56    c3.559-3.999,7.879-7.239,12.96-9.72c5.079-2.479,10.86-3.72,17.34-3.72c7.6,0,14.239,1.701,19.92,5.1    c5.68,3.401,9.88,7.901,12.601,13.5l-17.88,12.72c-0.721-2.08-1.662-3.799-2.82-5.16c-1.161-1.359-2.421-2.439-3.78-3.24    c-1.361-0.799-2.801-1.359-4.32-1.68c-1.521-0.319-2.921-0.48-4.199-0.48c-2.961,0-5.502,0.66-7.62,1.98    c-2.121,1.32-3.882,3.041-5.28,5.16c-1.4,2.121-2.421,4.521-3.06,7.2c-0.642,2.681-0.96,5.34-0.96,7.98    c0,2.961,0.378,5.801,1.14,8.52c0.76,2.721,1.879,5.121,3.36,7.2c1.479,2.081,3.279,3.741,5.399,4.98    c2.119,1.241,4.54,1.86,7.26,1.86c1.359,0,2.761-0.18,4.2-0.54c1.44-0.36,2.82-0.96,4.141-1.8c1.319-0.84,2.52-1.92,3.6-3.24    c1.08-1.32,1.938-2.94,2.58-4.86l19.08,11.4C380.299,313.661,378.479,316.462,376.039,318.941z" data-original="#000000" class="active-path" data-old_color="#000000" fill="#FFFFFF"/>
	</g>
</g></g> </svg>
