<svg xmlns="http://www.w3.org/2000/svg" viewBox="0 0 512.002 512.002"><g fill="#ffffff"><path d="M506.048 125.038a15.003 15.003 0 0 0-13.133-2.469l-212 60A15 15 0 0 0 270 197.002v203.072a59.608 59.608 0 0 0-30-8.072c-33.084 0-60 26.916-60 60s26.916 60 60 60 60-26.916 60-60V268.346l182-51.51v123.238a59.608 59.608 0 0 0-30-8.072c-33.084 0-60 26.916-60 60s26.916 60 60 60 60-26.916 60-60v-255a14.997 14.997 0 0 0-5.952-11.964zM240.001 482.002c-16.542 0-30-13.458-30-30s13.458-30 30-30 30 13.458 30 30-13.458 30-30 30zm212-60c-16.542 0-30-13.458-30-30s13.458-30 30-30 30 13.458 30 30-13.458 30-30 30zm30-236.343l-182 51.509v-28.822l182-51.509v28.822z"/><path d="M209.305 106.481c-33.28-24.396-57.661-48.558-74.535-73.869L117.481 6.681a15 15 0 0 0-27.48 8.321v235.072a59.608 59.608 0 0 0-30-8.072c-33.084 0-60 26.916-60 60s26.916 60 60 60 60-26.916 60-60V63.395c17.927 23.099 41.489 45.234 71.567 67.283 11.542 8.46 18.433 22.039 18.433 36.325 0 24.813-20.187 45-45 45-8.284 0-15 6.716-15 15s6.716 15 15 15c41.355-.001 75-33.646 75-75.001 0-23.807-11.476-46.432-30.696-60.521zM60.001 332.002c-16.542 0-30-13.458-30-30s13.458-30 30-30 30 13.458 30 30-13.458 30-30 30z"/></g></svg>