<svg xmlns="http://www.w3.org/2000/svg" width="512" height="512"><path d="M248.327 242.768C244.373 245.581 242 250.151 242 255c0 8.276 6.724 15 15 15 4.849 0 9.419-2.373 12.231-6.328l51.39-72.294-72.294 51.39z" data-original="#000000" class="active-path" data-old_color="#000000" fill="#FFF"/><path d="M287 392h-62c-8.276 0-15 6.724-15 15s6.724 15 15 15h62c8.276 0 15-6.724 15-15s-6.724-15-15-15z" data-original="#000000" class="active-path" data-old_color="#000000" fill="#FFF"/><path d="M257 0C116.39 0 0 114.39 0 255s114.39 257 255 257 257-116.39 257-257S397.61 0 257 0zm30 452h-62c-24.814 0-45-20.186-45-45s20.186-45 45-45h62c24.814 0 45 20.186 45 45s-20.186 45-45 45zm107.827-57.173c-5.859 5.859-15.352 5.859-21.211 0l-21.211-21.211c-5.859-5.859-5.859-15.352 0-21.211s15.352-5.859 21.211 0l10.137 10.137c21.542-25.759 33.924-59.184 36.947-92.542H407c-8.291 0-15-6.709-15-15s6.709-15 15-15h14.24c-3.01-33.204-15.886-63.567-35.684-88.182l-91.862 129.227C285.257 292.91 271.546 300 257 300c-24.814 0-45-20.186-45-45 0-14.546 7.09-28.257 18.955-36.694l129.227-91.862c-23.403-18.823-52.001-31.389-83.296-35.168A163.19 163.19 0 0 0 272 90.76V105c0 8.291-6.709 15-15 15s-15-6.709-15-15V90.76c-34.243 3.105-67.497 16.663-92.507 37.522l10.102 10.102c5.859 5.859 5.859 15.352 0 21.211-5.86 5.86-15.351 5.86-21.211 0l-10.102-10.102c-20.86 25.01-34.417 56.264-37.522 90.507H105c8.291 0 15 6.709 15 15s-6.709 15-15 15H91.296c3.016 33.408 15.385 66.85 36.892 92.601l10.195-10.195c5.859-5.859 15.352-5.859 21.211 0s5.859 15.352 0 21.211l-21.27 21.27c-5.86 5.86-15.351 5.86-21.211 0C80.288 358.06 60 307.09 60 255c0-107.238 89.272-195 197-195 107.336 0 195 87.678 195 195 0 52.017-20.303 102.957-57.173 139.827z" data-original="#000000" class="active-path" data-old_color="#000000" fill="#FFF"/></svg>