<svg height="512" viewBox="0 0 60 54" width="512" xmlns="http://www.w3.org/2000/svg"><g fill="#ffffff"><path d="M59.03 54h-58a1 1 0 0 1-1-1V13a1 1 0 0 1 1-1h58a1 1 0 0 1 1 1v40a1 1 0 0 1-1 1zm-57-2h56V14h-56z"/><path d="M53.03 14h-46a1 1 0 0 1-1-1V7a1 1 0 0 1 1-1h46a1 1 0 0 1 1 1v6a1 1 0 0 1-1 1zm-45-2h44V8h-44z"/><path d="M47.03 8h-34a1 1 0 0 1-1-1V1a1 1 0 0 1 1-1h34a1 1 0 0 1 1 1v6a1 1 0 0 1-1 1zm-33-2h32V2h-32z"/><path d="M25.055 42.062a2.04 2.04 0 0 1-1.017-.275 1.984 1.984 0 0 1-1.008-1.735V25.01c0-.724.377-1.372 1.008-1.735a2.047 2.047 0 0 1 2.04.003L39.029 30.8c.627.363 1.001 1.011 1.001 1.731s-.374 1.367-1.001 1.731l-12.951 7.521c-.32.186-.672.279-1.023.279zm.018-17.056l-.043 15.045v.004l12.994-7.523z"/></g></svg>