<svg xmlns="http://www.w3.org/2000/svg" viewBox="0 0 400.48 400.48"><g fill="#ffffff"><path d="M361.588 52.68c-16.861-16.861-39.279-26.147-63.124-26.147-23.846 0-46.264 9.286-63.124 26.147-16.867 16.866-26.313 40.024-26.124 63.863L23.365 335.236a6 6 0 0 0 .33 8.128l18.841 18.841-28.033 28.032a6 6 0 0 0 8.486 8.486l28.033-28.033 19.882 19.882a5.987 5.987 0 0 0 4.244 1.758c1.378 0 2.76-.473 3.884-1.428l218.694-185.851c.231.002.465.003.695.003 23.592 0 46.466-9.425 63.167-26.127 16.861-16.861 26.147-39.279 26.147-63.124s-9.286-46.263-26.147-63.123zm-145.967 74.857l71.11 71.11-40.819 34.689-64.979-64.98 34.688-40.819zM75.476 378.176l-39.384-39.384L173.136 177.53l63.602 63.602L75.476 378.176zm277.626-207.734c-14.756 14.757-34.228 22.697-55.019 22.587l-76.846-76.846c-.121-20.799 7.832-40.263 22.588-55.02 14.595-14.594 34-22.632 54.64-22.632s40.044 8.038 54.638 22.632h.001c14.594 14.595 22.632 34 22.632 54.64s-8.039 40.045-22.634 54.639z"/><path d="M53.244 101.996c15.714 0 28.499-12.784 28.499-28.499V12h65.996v38.282a28.33 28.33 0 0 0-16.499-5.284c-15.714 0-28.499 12.784-28.499 28.499s12.785 28.499 28.499 28.499 28.499-12.784 28.499-28.499V6a6 6 0 0 0-6-6H75.743a6 6 0 0 0-6 6v44.282a28.33 28.33 0 0 0-16.499-5.284c-15.714 0-28.499 12.784-28.499 28.499s12.785 28.499 28.499 28.499zm77.996-12c-9.098 0-16.499-7.401-16.499-16.499s7.401-16.499 16.499-16.499 16.499 7.401 16.499 16.499-7.401 16.499-16.499 16.499zM53.244 56.998c9.098 0 16.499 7.401 16.499 16.499s-7.401 16.499-16.499 16.499-16.499-7.401-16.499-16.499 7.401-16.499 16.499-16.499z"/></g></svg>