<svg xmlns="http://www.w3.org/2000/svg" width="512" height="512"><path d="M202.667 149.333c2.729 0 5.458-1.042 7.542-3.125l21.333-21.333c4.167-4.167 4.167-10.917 0-15.083-4.167-4.167-10.917-4.167-15.083 0l-21.333 21.333c-4.167 4.167-4.167 10.917 0 15.083a10.626 10.626 0 0 0 7.541 3.125z" data-original="#000000" class="active-path" data-old_color="#000000" fill="#b53156"/><path d="M259.125 109.792l-64 64c-4.167 4.167-4.167 10.917 0 15.083a10.634 10.634 0 0 0 7.542 3.125c2.729 0 5.458-1.042 7.542-3.125l64-64c4.167-4.167 4.167-10.917 0-15.083-4.167-4.167-10.917-4.167-15.084 0z" data-original="#000000" class="active-path" data-old_color="#000000" fill="#b53156"/><path d="M504.978 58.104c-11.335-22.677-34.141-36.771-59.51-36.771h-206.7c-39.579 0-77.356 16.958-103.652 46.542L34.954 180.542C12.357 205.948-.083 238.667 0 274.042l17.847 137.667c2.552 19.729 11.71 38.354 25.785 52.417 17.117 17.115 39.871 26.542 64.083 26.542h361.611C492.862 490.667 512 471.531 512 448V87.854a66.86 66.86 0 0 0-7.022-29.75zM82.854 223.052L183 110.396c14.167-15.927 34.51-25.063 55.813-25.063H445.48c.99 0 1.813.5 2.521 2.521V256H64.854c1.959-11.292 7.427-21.031 18-32.948zm375.813 182.281h-384c-5.896 0-10.667-4.771-10.667-10.667S68.771 384 74.667 384h384c5.896 0 10.667 4.771 10.667 10.667s-4.771 10.666-10.667 10.666zm0-64h-64A10.66 10.66 0 0 1 384 330.666a10.66 10.66 0 0 1 10.667-10.667h64a10.66 10.66 0 0 1 10.667 10.667 10.66 10.66 0 0 1-10.667 10.667z" data-original="#000000" class="active-path" data-old_color="#000000" fill="#b53156"/></svg>