<svg xmlns="http://www.w3.org/2000/svg" viewBox="0 0 512 512"><g fill="#ffffff"><path d="M509.304 115.331l-108.451-90.44a7.494 7.494 0 0 0-7.979-1.031 7.494 7.494 0 0 0-4.318 6.789v95.743a7.497 7.497 0 1 0 14.994 0v-79.73l96.153 80.184a7.496 7.496 0 1 0 9.601-11.515z"/><path d="M396.053 165.525a7.497 7.497 0 0 0-7.497 7.497V366.39c-14.016-18.997-36.544-31.347-61.909-31.347-42.404 0-76.903 34.499-76.903 76.903s34.499 76.903 76.903 76.903 76.903-34.499 76.903-76.903V173.024a7.499 7.499 0 0 0-7.497-7.499zm-69.406 308.329c-34.137 0-61.909-27.772-61.909-61.909 0-34.138 27.773-61.909 61.909-61.909 34.137 0 61.909 27.772 61.909 61.909s-27.772 61.909-61.909 61.909z"/><path d="M345.068 118.895H55.193a7.497 7.497 0 1 0 0 14.994h289.874a7.496 7.496 0 0 0 7.497-7.497 7.496 7.496 0 0 0-7.496-7.497z"/><path d="M345.068 190.726H55.193c-4.14 0-7.497 3.355-7.497 7.497s3.357 7.497 7.497 7.497h289.874c4.14 0 7.497-3.355 7.497-7.497s-3.356-7.497-7.496-7.497z"/><path d="M345.068 262.558H55.193a7.497 7.497 0 1 0 0 14.994h289.874a7.496 7.496 0 0 0 7.497-7.497 7.496 7.496 0 0 0-7.496-7.497z"/><path d="M241.582 334.391H55.193c-4.14 0-7.497 3.355-7.497 7.497s3.357 7.497 7.497 7.497h186.389c4.14 0 7.497-3.355 7.497-7.497s-3.356-7.497-7.497-7.497z"/><path d="M217.743 406.222H55.193c-4.14 0-7.497 3.355-7.497 7.497s3.357 7.497 7.497 7.497h162.549c4.14 0 7.497-3.355 7.497-7.497s-3.356-7.497-7.496-7.497z"/><ellipse cx="10.773" cy="126.393" rx="10.773" ry="10.731"/><ellipse cx="10.773" cy="198.881" rx="10.773" ry="10.731"/><ellipse cx="10.773" cy="272.707" rx="10.773" ry="10.731"/><ellipse cx="10.773" cy="342.526" rx="10.773" ry="10.731"/><ellipse cx="10.773" cy="413.674" rx="10.773" ry="10.731"/></g></svg>