<?xml version="1.0"?>
<svg xmlns="http://www.w3.org/2000/svg" xmlns:xlink="http://www.w3.org/1999/xlink" version="1.1" id="Capa_1" x="0px" y="0px" viewBox="0 0 512 512" style="enable-background:new 0 0 512 512;" xml:space="preserve" width="512px" height="512px"><g><g>
	<g>
		<g>
			<path d="M213.333,394.667c0-24.615,4.813-36.635,9.896-49.375c4.88-12.181,9.888-24.763,11.133-46.625h10.971     c4.313,0,8.208-2.594,9.854-6.583c1.646-3.99,0.729-8.573-2.313-11.625l-21.333-21.333c-4.167-4.167-10.917-4.167-15.083,0     l-21.333,21.333c-3.042,3.052-3.958,7.635-2.313,11.625c1.646,3.99,5.542,6.583,9.854,6.583h10.124     c-1.215,17.441-5.1,28.052-9.353,38.708c-2.917,7.281-5.866,14.741-8.047,24.194l-4.891,0.514L171.833,199.49     c-0.604-4.406-1.979-8.906-3.729-12.458c-5.5-17.917-20.188-31.76-38.667-36.208c-8.583-2-15.25-2.094-24.583,0.094     c-23.208,5.594-39.667,25.594-40.646,50.979c-0.125,0.708-0.208,1.531-0.208,2.177c0,42.396,5.208,84.75,15.5,125.906     l19.833,79.354c5.625,22.469,20.708,41.281,41.417,51.635c10.938,5.469,23.208,8.365,35.438,8.365h33.251     c2.268,8.289,3.895,18.034,3.895,32c0,5.896,4.771,10.667,10.667,10.667s10.667-4.771,10.667-10.667     c0-28.719-5.813-43.25-11.438-57.292C218.146,431.302,213.333,419.281,213.333,394.667z" data-original="#000000" class="active-path" data-old_color="#000000" fill="#FFFFFF"/>
			<path d="M288,394.667c0-24.615,4.813-36.635,9.896-49.375c4.88-12.181,9.888-24.763,11.133-46.625H320     c4.313,0,8.208-2.594,9.854-6.583c1.646-3.99,0.729-8.573-2.313-11.625l-21.333-21.333c-4.167-4.167-10.917-4.167-15.083,0     l-21.333,21.333c-3.042,3.052-3.958,7.635-2.313,11.625c1.646,3.99,5.542,6.583,9.854,6.583h10.124     c-1.215,17.441-5.1,28.052-9.353,38.708c-2.225,5.555-4.464,11.225-6.376,17.78l-24.436,1.991     c-4.563,0.375-8.396,3.635-9.479,8.104c-2.146,8.76-3.146,18.104-3.146,29.417c0,24.656,4.813,36.667,9.917,49.365     c2.125,5.333,4.375,10.99,6.292,17.625c1.333,4.552,5.5,7.677,10.25,7.677h22.98c2.268,8.289,3.895,18.034,3.895,32     c0,5.896,4.771,10.667,10.667,10.667c5.896,0,10.667-4.771,10.667-10.667c0-28.719-5.813-43.25-11.438-57.292     C292.813,431.302,288,419.281,288,394.667z" data-original="#000000" class="active-path" data-old_color="#000000" fill="#FFFFFF"/>
			<path d="M362.667,394.667c0-24.615,4.813-36.635,9.896-49.375c4.88-12.181,9.888-24.763,11.133-46.625h10.971     c4.313,0,8.208-2.594,9.854-6.583c1.646-3.99,0.729-8.573-2.313-11.625l-21.333-21.333c-4.167-4.167-10.917-4.167-15.083,0     l-21.333,21.333c-3.042,3.052-3.958,7.635-2.313,11.625c1.646,3.99,5.542,6.583,9.854,6.583h10.124     c-1.215,17.441-5.1,28.052-9.353,38.708c-1.488,3.716-2.983,7.488-4.387,11.526l-24.572,2.005     c-4.292,0.354-7.958,3.271-9.292,7.375c-3.625,11.365-5.188,22.25-5.188,36.385c0,24.656,4.813,36.667,9.917,49.365     c2.125,5.333,4.375,10.99,6.292,17.625c1.333,4.552,5.5,7.677,10.25,7.677h18.25c1.568,0,3.078-0.253,4.624-0.358     c2.324,8.365,4.001,18.184,4.001,32.358c0,5.896,4.771,10.667,10.667,10.667c5.896,0,10.667-4.771,10.667-10.667     c0-28.719-5.813-43.25-11.438-57.292C367.479,431.302,362.667,419.281,362.667,394.667z" data-original="#000000" class="active-path" data-old_color="#000000" fill="#FFFFFF"/>
			<path d="M434.083,356.844c-8.896-8.396-21.083-12.885-33.229-12.104c-4.208,0.24-7.875,2.927-9.375,6.865     C387,363.438,384,375.292,384,394.667c0,24.656,4.813,36.667,9.917,49.375c0.021,0.052,0.875,2.188,0.896,2.24     c1.25,3.01,3.813,5.281,6.958,6.156c0.958,0.271,1.917,0.396,2.875,0.396c2.229,0,4.438-0.698,6.292-2.052     c16.375-11.938,28.396-28.375,34.75-47.49c1.542-4.542,2.313-9.302,2.313-14.135C448,376.802,443.063,365.323,434.083,356.844z" data-original="#000000" class="active-path" data-old_color="#000000" fill="#FFFFFF"/>
			<path d="M117.563,128c21.771,0,40.667-15.5,44.938-36.844l7.271-36.333c2.708-13.521-0.75-27.385-9.5-38.042     C151.542,6.115,138.604,0,124.813,0h-7.25C92.271,0,71.708,20.563,71.708,45.833v36.333C71.708,107.438,92.271,128,117.563,128z" data-original="#000000" class="active-path" data-old_color="#000000" fill="#FFFFFF"/>
		</g>
	</g>
</g></g> </svg>
