<svg width="23" height="18" xmlns="http://www.w3.org/2000/svg"><path d="M7.19 14.983c.094.096.19.19.344.336.076.078.154.152.26.253.03.027.037.033.106.105l.05.051c.211.208.455.382.72.515.268.134.555.227.852.276.331.054.666.083 1.013.087a43.055 43.055 0 0 0 .49.01h5.99V18l-.001-.692v-.693h.605c.133 0 .243-.002.5-.009a6.74 6.74 0 0 0 1.004-.087 2.97 2.97 0 0 0 .85-.276 2.818 2.818 0 0 0 1.523-2.056c.054-.326.083-.656.088-.998.005-.18.008-.335.008-.483V5.59v-.287l-.002-.126a19.451 19.451 0 0 0-.006-.377 6.537 6.537 0 0 0-.087-.98 3.006 3.006 0 0 0-.28-.841 2.824 2.824 0 0 0-1.245-1.222 2.974 2.974 0 0 0-.853-.276 6.242 6.242 0 0 0-1.011-.087 16.616 16.616 0 0 0-.489-.01h-6.596c-.087 0-.179.002-.29.004l-.215.006a6.165 6.165 0 0 0-.997.087 2.907 2.907 0 0 0-1.587.804c-.075.079-.105.11-.13.134-.102.094-.19.178-.284.273-.154.148-.24.232-.339.331L4.807 5.36a.877.877 0 0 0-.071.063l-.056.054a8.868 8.868 0 0 0-.228.224L2.347 7.77l-.044.043-.048.047-.103.103a3.323 3.323 0 0 0-.14.142 5.03 5.03 0 0 0-.44.476l-.051.057a.427.427 0 0 0-.077.103.946.946 0 0 0 0 .518.522.522 0 0 0 .086.119c.167.197.307.349.461.5l.042.041.04.04a12.986 12.986 0 0 0 .184.183l.097.096 2.094 2.062.205.196.137.134a.78.78 0 0 1 .07.064l2.33 2.29zm3.981-9.427a.607.607 0 0 0-.937-.096.588.588 0 0 0-.003.838l-.011.011 2.739 2.687-2.635 2.591a.593.593 0 0 0-.101.925.614.614 0 0 0 .853.004l.01.01 2.732-2.687 2.734 2.683.007-.007c.237.23.619.23.855-.001a.588.588 0 0 0-.087-.914l-2.652-2.604 2.737-2.691-.007-.007a.59.59 0 0 0-.001-.842.614.614 0 0 0-.925.078l-2.663 2.619-2.645-2.597zm-7.337 8.09l-.168-.163-.208-.2-2.098-2.066a13.019 13.019 0 0 1-.202-.2 14.102 14.102 0 0 1-.088-.088l-.076-.076a7.363 7.363 0 0 1-.504-.542 1.904 1.904 0 0 1-.349-.524L.115 9.72a2.31 2.31 0 0 1 0-1.44l.024-.063a1.81 1.81 0 0 1 .35-.523c.153-.187.316-.364.49-.531.05-.054.093-.098.179-.182l.095-.094.053-.053.051-.05 2.088-2.05a7.43 7.43 0 0 1 .215-.213l.086-.084.094-.09L6.18 2.05c.102-.103.195-.194.345-.338.097-.098.198-.195.31-.299.09-.093.108-.113.12-.122.315-.31.678-.57 1.076-.77.396-.197.82-.334 1.255-.406a7.519 7.519 0 0 1 1.21-.107A44.161 44.161 0 0 1 11.022 0h6.596c.15 0 .269.002.513.01.41.002.821.037 1.223.106.437.071.861.209 1.256.407a4.228 4.228 0 0 1 1.862 1.83c.198.388.336.803.413 1.237.065.394.1.793.105 1.18.004.112.005.198.007.391l.002.133v7.412c0 .163-.003.332-.009.512-.005.4-.04.798-.106 1.198a4.398 4.398 0 0 1-.416 1.239 4.227 4.227 0 0 1-1.857 1.822c-.396.198-.82.336-1.258.407-.403.066-.81.102-1.207.107-.26.007-.378.009-.528.009h-.605v-1.385l.002.693V18h-5.991a13.891 13.891 0 0 1-.518-.01 8.15 8.15 0 0 1-1.216-.106 4.421 4.421 0 0 1-1.26-.407 4.234 4.234 0 0 1-1.155-.849l-.042-.043c-.13-.123-.218-.207-.296-.286a19.296 19.296 0 0 1-.35-.343l-2.276-2.237-.078-.073z" fill="#FFF" fill-rule="nonzero"/></svg>