<?xml version="1.0"?>
<svg xmlns="http://www.w3.org/2000/svg" id="icons" enable-background="new 0 0 64 64" height="512px" viewBox="0 0 64 64" width="512px" class="hovered-paths"><g><g><g><path d="m30 21.501c.55 0 1 .45 1 1v1c0 .55-.45 1-1 1h-2c-.55 0-1.45 0-2 0h-2c-.55 0-1.45 0-2 0h-2c-.55 0-1-.45-1-1v-1c0-.55.45-1 1-1z" fill="#656d78" data-original="#656D78" class="" style="fill:#FFFFFF" data-old_color="#656d78"/></g><g><path d="m23 24.501h4v.988h-4z" fill="#545c66" data-original="#545C66" class="" style="fill:#FFFFFF" data-old_color="#545c66"/></g><g><path d="m13.01 37.489v3.01h-.01v-.01h-2c-5.53 0-10-4.471-10-9.99v-.01c0-3.311 2.69-6 6-6s6 2.689 6 6h.01v3.01h-.01c-1.66 0-3.01-1.35-3.01-3.01 0-1.65-1.34-2.99-2.99-2.99s-2.99 1.34-2.99 2.99l-.01.01c0 3.87 3.13 6.99 7 6.99h2z" fill="#545c66" data-original="#545C66" class="" style="fill:#FFFFFF" data-old_color="#545c66"/></g><g><path d="m57 24.509 4 2.99-2 2-2-1-19.99 14h-22c-1.109 0-2-.88-2.01-2h.01v-3.01-3.99-3.01-3c0-1.101.891-2 2-2h7.99 4 6l6.01 5 17.99-5.99z" fill="#656d78" data-original="#656D78" class="" style="fill:#FFFFFF" data-old_color="#656d78"/></g><g><path d="m63 38.499c0 2.21-1.79 4-4 4s-4-1.79-4-4 4-6.01 4-6.01 4 3.8 4 6.01z" fill="#ffce54" data-original="#FFCE54" class="hovered-path active-path" style="fill:#FFFFFF" data-old_color="#ffce54"/></g></g></g> </svg>
