<?xml version="1.0"?>
<svg xmlns="http://www.w3.org/2000/svg" height="512px" viewBox="0 0 512 512" width="512px" class=""><g><path d="m512 242.703125c0 36.882813-7.683594 72.484375-22.835938 105.816406-13.382812 29.449219-31.921874 55.707031-55.164062 78.167969v25.3125c0 33.085938-26.914062 60-60 60h-236c-33.085938 0-60-26.914062-60-60v-25.3125c-23.242188-22.460938-41.78125-48.71875-55.164062-78.167969-15.152344-33.332031-22.835938-68.933593-22.835938-105.816406s7.683594-72.484375 22.835938-105.8125c13.382812-29.449219 31.921874-55.707031 55.164062-78.167969v-58.722656h40v76.304688l-6.605469 5.957031c-45.371093 40.921875-71.394531 99.398437-71.394531 160.441406s26.023438 119.523437 71.394531 160.445313l6.605469 5.957031v42.894531c0 11.027344 8.972656 20 20 20h21v-51h40v51h40v-51h40v51h39v-51h40v51h16c11.027344 0 20-8.972656 20-20v-42.894531l6.605469-5.957031c45.371093-40.921876 71.394531-99.402344 71.394531-160.445313s-26.023438-119.519531-71.394531-160.441406l-6.605469-5.957031v-76.304688h40v58.722656c23.242188 22.460938 41.78125 48.71875 55.164062 78.167969 15.152344 33.328125 22.835938 68.929687 22.835938 105.8125zm-233 68.296875h-40v40h40zm0-230h-40v191h40zm0 0" data-original="#000000" class="active-path" data-old_color="#000000" fill="#FFFFFF"/></g> </svg>
