<?xml version="1.0" encoding="iso-8859-1"?>
<!-- Generator: Adobe Illustrator 19.0.0, SVG Export Plug-In . SVG Version: 6.00 Build 0)  -->
<svg version="1.1" id="Capa_1" xmlns="http://www.w3.org/2000/svg" xmlns:xlink="http://www.w3.org/1999/xlink" x="0px" y="0px"
	 viewBox="0 0 480 480" style="enable-background:new 0 0 480 480;" xml:space="preserve">
<path style="fill:#74818C;" d="M72,256c66.234-0.04,119.96,53.621,120,119.856c0.01,16.57-3.414,32.963-10.056,48.144h116.104
	c-26.54-60.694,1.147-131.412,61.841-157.952c30.637-13.397,65.475-13.397,96.111,0V184H24v82.048
	C39.134,259.418,55.478,255.997,72,256z"/>
<path style="fill:#5D6D7E;" d="M373.752,184c-13.192,73.871-83.77,123.062-157.642,109.87
	c-56.017-10.003-99.867-53.853-109.87-109.87H24v82.048c60.688-26.543,131.403,1.136,157.946,61.824
	c13.402,30.641,13.401,65.487-0.002,96.128h116.104c-26.54-60.694,1.147-131.412,61.841-157.952
	c30.637-13.397,65.475-13.397,96.111,0V184H373.752z"/>
<path style="fill:#34495E;" d="M240,8C111.87,8,8,111.87,8,240s103.87,232,232,232s232-103.87,232-232S368.13,8,240,8z M240,416
	c-97.202,0-176-78.798-176-176S142.798,64,240,64s176,78.798,176,176S337.202,416,240,416z"/>
<path style="fill:#314559;" d="M240,32C125.125,32,32,125.125,32,240s93.125,208,208,208s208-93.125,208-208S354.875,32,240,32z
	 M240,416c-97.202,0-176-78.798-176-176S142.798,64,240,64s176,78.798,176,176S337.202,416,240,416z"/>
<g>
	<path style="fill:#AAB5BD;" d="M80.488,314.4l-50.76,23.648c23.11,49.395,62.827,89.11,112.224,112.216l23.648-50.752
		C128.138,381.983,98.017,351.862,80.488,314.4L80.488,314.4z"/>
	<path style="fill:#AAB5BD;" d="M314.4,399.512l23.664,50.752c49.388-23.111,89.096-62.825,112.2-112.216L399.512,314.4
		C381.98,351.86,351.86,381.98,314.4,399.512L314.4,399.512z"/>
</g>
<g>
	<path style="fill:#969EA3;" d="M165.6,399.512c-4.592-2.133-9.064-4.467-13.416-7l-0.488-0.28c-4.304-2.507-8.491-5.173-12.56-8
		l-0.368-0.264c-16.589-11.685-31.043-26.139-42.728-42.728l-0.264-0.368c-2.848-4.064-5.515-8.253-8-12.568l-0.28-0.48
		c-2.512-4.363-4.845-8.835-7-13.416l-29.008,13.52c20.722,44.273,56.324,79.869,100.6,100.584L165.6,399.512z"/>
	<path style="fill:#969EA3;" d="M428.512,327.904l-29-13.504c-2.133,4.581-4.469,9.053-7.008,13.416l-0.272,0.48
		c-2.507,4.315-5.173,8.504-8,12.568l-0.256,0.368c-11.689,16.585-26.142,31.039-42.728,42.728l-0.368,0.264
		c-4.064,2.837-8.251,5.504-12.56,8l-0.488,0.28c-4.363,2.512-8.835,4.845-13.416,7l13.52,29
		C372.206,407.781,407.799,372.179,428.512,327.904L428.512,327.904z"/>
</g>
<g>
	<path style="fill:#FF7059;" d="M363.6,402.568l-16.312-23.296c-4.224,3.259-8.592,6.323-13.104,9.192l16.304,23.288L363.6,402.568z
		"/>
	<path style="fill:#FF7059;" d="M389.952,378.64l-20.12-20.12c-3.6,3.947-7.371,7.717-11.312,11.312l20.12,20.12L389.952,378.64z"/>
	<path style="fill:#FF7059;" d="M412.592,351.08l-24.136-16.896c-2.864,4.517-5.925,8.885-9.184,13.104l24.136,16.904
		L412.592,351.08z"/>
	<path style="fill:#FF7059;" d="M101.656,389.656l19.816-19.824c-3.936-3.6-7.707-7.371-11.312-11.312l-19.816,19.824
		L101.656,389.656z"/>
	<path style="fill:#FF7059;" d="M76.592,364.192l24.136-16.904c-3.253-4.224-6.317-8.592-9.192-13.104L67.408,351.08L76.592,364.192
		z"/>
	<path style="fill:#FF7059;" d="M129.744,411.408l16.072-22.944c-4.523-2.875-8.891-5.939-13.104-9.192l-16.08,22.952
		L129.744,411.408z"/>
</g>
<path style="fill:#C0FAFF;" d="M192,224h96l-48.2,48.192L192,224z"/>
<g>
	<path style="fill:#FF7059;" d="M312,216h16v16h-16V216z"/>
	<path style="fill:#FF7059;" d="M344,216h16v16h-16V216z"/>
	<path style="fill:#FF7059;" d="M120,216h16v16h-16V216z"/>
	<path style="fill:#FF7059;" d="M152,216h16v16h-16V216z"/>
</g>
<g>
	<path style="fill:#314559;" d="M232,376h16v16h-16V376z"/>
	<path style="fill:#314559;" d="M232,304h16v56h-16V304z"/>
</g>
<path d="M240,0C107.452,0,0,107.452,0,240s107.452,240,240,240s240-107.452,240-240C479.85,107.514,372.486,0.15,240,0z
	 M40.576,341.816l36.264-16.904c2.496,4.763,5.187,9.4,8.072,13.912L67.408,351.08l9.184,13.112l17.512-12.264
	c3.275,4.267,6.717,8.376,10.328,12.328l-14.088,14.088l11.312,11.312l14.088-14.088c3.952,3.627,8.061,7.069,12.328,10.328
	l-11.44,16.328l13.112,9.184l11.432-16.32c4.512,2.88,9.149,5.568,13.912,8.064l-16.912,36.264
	C96.237,417.889,62.103,383.755,40.576,341.816z M72,240c0.011-16.259,2.393-32.429,7.072-48H400.92
	c4.681,15.571,7.066,31.741,7.08,48c0,2.704-0.28,5.344-0.408,8c-70.692,0.221-127.821,57.707-127.6,128.399
	c0.027,8.7,0.941,17.375,2.728,25.889c-27.971,7.616-57.469,7.616-85.44,0c14.519-69.185-29.797-137.041-98.983-151.56
	c-8.515-1.787-17.189-2.701-25.889-2.728C72.28,245.344,72,242.704,72,240L72,240z M298.08,397.432
	c-11.858-60.641,27.689-119.413,88.33-131.271c6.483-1.268,13.065-1.959,19.67-2.065
	C397.162,324.943,355.748,376.072,298.08,397.432z M84.736,176c35.286-85.75,133.406-126.659,219.156-91.372
	c41.428,17.048,74.325,49.945,91.372,91.372H84.736z M73.928,264.096c61.782,0.994,111.059,51.884,110.065,113.666
	c-0.106,6.605-0.797,13.187-2.065,19.67C124.263,376.068,82.851,324.941,73.928,264.096z M152.648,446.256L169.6,409.96
	c45.086,18.72,95.77,18.72,140.856,0l16.928,36.296c-55.832,23.658-118.872,23.658-174.704,0H152.648z M341.816,439.416
	l-16.904-36.264c4.763-2.491,9.4-5.179,13.912-8.064l11.664,16.664l13.112-9.184l-11.672-16.672
	c4.267-3.269,8.376-6.712,12.328-10.328l14.4,14.4l11.312-11.312l-14.4-14.4c3.627-3.952,7.069-8.061,10.328-12.328l17.512,12.264
	l9.184-13.112l-17.504-12.256c2.88-4.512,5.568-9.149,8.064-13.912l36.264,16.904C417.892,383.757,383.757,417.892,341.816,439.416z
	 M446.256,327.352L409.96,310.4c38.934-93.866-5.598-201.522-99.465-240.455S108.974,75.543,70.04,169.409
	c-18.72,45.133-18.72,95.858,0,140.991l-36.296,16.952C-14.512,213.44,38.713,81.977,152.625,33.721S398,38.689,446.256,152.601
	C457.969,180.25,464.003,209.972,464,240C464.031,270.015,457.995,299.728,446.256,327.352L446.256,327.352z"/>
<path d="M234.12,277.832c1.493,1.523,3.532,2.387,5.664,2.4c2.122,0,4.156-0.844,5.656-2.344l48.2-48.192
	c3.146-3.102,3.181-8.168,0.079-11.313c-1.509-1.53-3.57-2.389-5.719-2.383h-96c-4.418,0.018-7.985,3.615-7.967,8.033
	c0.009,2.083,0.829,4.08,2.287,5.567L234.12,277.832z M268.688,232l-28.864,28.856L211.2,232L268.688,232z"/>
<path d="M312,216h16v16h-16V216z"/>
<path d="M344,216h16v16h-16V216z"/>
<path d="M120,216h16v16h-16V216z"/>
<path d="M152,216h16v16h-16V216z"/>
<path d="M232,376h16v16h-16V376z"/>
<path d="M232,304h16v56h-16V304z"/>
<g>
</g>
<g>
</g>
<g>
</g>
<g>
</g>
<g>
</g>
<g>
</g>
<g>
</g>
<g>
</g>
<g>
</g>
<g>
</g>
<g>
</g>
<g>
</g>
<g>
</g>
<g>
</g>
<g>
</g>
</svg>
